# xmcd
#
# Track frame offsets:
#	224
#	14807
#	59774
#	109501
#	153929
#	194764
#	243468
#	276976
#
# Disc length: 4393 seconds
#
# Revision: 0
# Processed by: cddbd v1.5.2PL0 Copyright (c) Steve Scherf et al.
# Submitted via: EasyCDDAExtractor 10.0.1.1
#
DISCID=77112708
DTITLE=Various Artist - Live in Cremona
DYEAR=2003
DGENRE=Instrumental
TTITLE0=Josè Serrano (tras. L. Valenti) - El motete - Pasodoble - Dalla Zarzue
TTITLE0=la
TTITLE1=Jeromine Jimenez (tras. L. Valenti) - La torre del oro - Preludio sinf
TTITLE1=onico - dalla Zarzuela
TTITLE2=Bernardo Adam Ferrero - Impresiones festeras - Estructuras sinfònicas
TTITLE3=Amilcare Ponchielli - La gioconda - Danza delle ore
TTITLE4=Antonin Dvorak (tras G. Dall'Ara) - Sinfonia n° 9 in mi minore Op. 95 
TTITLE4=' Dal nuovo mondo' - I Adagio
TTITLE5=Antonin Dvorak (tras G. Dall'Ara) - II Largo
TTITLE6=Antonin Dvorak (tras G. Dall'Ara) - III Scherzo
TTITLE7=Antonin Dvorak (tras G. Dall'Ara) - IV Allegro con fuoco
EXTD=
EXTT0=
EXTT1=
EXTT2=
EXTT3=
EXTT4=
EXTT5=
EXTT6=
EXTT7=
PLAYORDER=
